<svg id="Laag_1" data-name="Laag 1" xmlns="http://www.w3.org/2000/svg" viewBox="0 0 336 63.75"><defs><style>.cls-1{fill:#fff;}</style></defs><g id="Visuals"><g id="Logos-_-Ajax-_-Default" data-name="Logos-/-Ajax-/-Default"><g id="Logos_Ajax_Emblem_Black" data-name="Logos/Ajax/Emblem/Black"><path id="_-Color" data-name="🎨-Color" class="cls-1" d="M.34,39.87A23.75,23.75,0,0,0,23.88,63.76a24,24,0,0,0,3.6-.28l.59-.1,0,.19A23.72,23.72,0,0,1,.15,40.26v-.39Zm29.39,21,1.31,2-.42.12-.3-.49-.74.21v.58l-.41.11L29.29,61Zm-28-21A22.33,22.33,0,0,0,23.88,62.34a22.56,22.56,0,0,0,3.39-.26l.56-.1.15.88a22.41,22.41,0,0,1-4.1.37,23.21,23.21,0,0,1-23-23v-.38ZM33.57,59.32l.92,2.09-.38.18-.77-1.75h0l.2,2-.3.13-1.31-1.5h0l.77,1.74-.37.17-.93-2.09L32,60l1.16,1.35h0L33,59.6Zm-4,1.92h0l0,1.12.58-.16ZM2.47,39.87A21.59,21.59,0,0,0,23.88,61.59a21.12,21.12,0,0,0,3.28-.25l.53-.09,0,.19a21.53,21.53,0,0,1-3.85.34A21.77,21.77,0,0,1,2.29,40.23v-.36ZM35.66,58.1l.16.31a1.06,1.06,0,0,0-.4.14.28.28,0,0,0-.13.4c.09.15.22.14.37.13h.28a.59.59,0,0,1,.65.31.67.67,0,0,1-.27,1,1,1,0,0,1-.5.19l-.17-.33a.91.91,0,0,0,.48-.14.31.31,0,0,0,.11-.46c-.08-.14-.2-.15-.43-.14l-.24,0a.64.64,0,0,1-.63-.31.66.66,0,0,1,.28-.92A1.35,1.35,0,0,1,35.66,58.1Zm2.44-9c1,.28,2.13.69,2.18.7a.38.38,0,0,1-.24.72s-1.18-.42-2.14-.69-1.44-.27-1.68,0a.51.51,0,0,0,0,.21,8.51,8.51,0,0,0,.63,2.44A3.4,3.4,0,0,1,37,53.49a1.29,1.29,0,0,1-.52,1.19,1.55,1.55,0,0,1-1.7-.54l-.09-.1-.14-.13A3.62,3.62,0,0,0,33.44,53a6.44,6.44,0,0,0-.66,1.91c-.27,1.21-.61,2.39-1.41,2.43a.59.59,0,0,1-.46-.18,4.4,4.4,0,0,1-.46-2.4c0-.24,0-.44,0-.53v-.16a6.62,6.62,0,0,0-.25-1.81,3.11,3.11,0,0,0-.89.65A17.67,17.67,0,0,0,27.19,56a29.91,29.91,0,0,0-1.51,3.5.38.38,0,0,1-.48.23.39.39,0,0,1-.22-.49,32.79,32.79,0,0,1,1.55-3.6,17.37,17.37,0,0,1,2.24-3.21s1.08-1.13,1.75-.88.68,2,.68,2.57v.16c0,.15,0,.31,0,.47a5.88,5.88,0,0,0,.21,1.82c.12-.09.35-.45.65-1.81.19-.83.58-2.25,1.1-2.46s1,.12,1.92,1.09l.16.17h0c.33.38.76.54.89.47a1.54,1.54,0,0,0,0-1.32c-.71-2-.83-3-.44-3.41C36.24,48.67,37.17,48.83,38.1,49.09ZM16.29,54.47h.07a4.14,4.14,0,0,1,1.77,1.08A4.35,4.35,0,0,1,19,57.35a10.3,10.3,0,0,1,.14,1.22.36.36,0,0,1-.34.4.37.37,0,0,1-.4-.35,10.14,10.14,0,0,0-.13-1.11,3.64,3.64,0,0,0-.7-1.44,3.38,3.38,0,0,0-1.41-.86.38.38,0,0,1,0-.74Zm21.36,2.05.2.26-.39.32,1.2,1.53-.32.26-1.2-1.53-.4.32-.21-.26Zm1.63-1.58.23.24-.54.56.42.43.52-.52.23.24-.52.52.47.48.57-.58.23.24-.86.87-1.59-1.63Zm2.11-1.59a.52.52,0,0,1,.18.6l0,.09a.28.28,0,0,1,.29,0l.08,0,.85.32-.27.35-.71-.29a.29.29,0,0,0-.34,0l0,.06-.06.07.76.61-.26.33-1.77-1.43.44-.56C40.76,53.19,41.07,53.09,41.39,53.35Zm-.67.4,0,.06-.11.13.52.42.11-.13a.34.34,0,0,0,0-.51A.28.28,0,0,0,40.72,53.75Zm2.72-2.58a1,1,0,0,1,.46,1.43l-.06.11-.31.5L41.6,52l.31-.51A1,1,0,0,1,43.44,51.17ZM10.3,49.34a30.21,30.21,0,0,1,4,1.3l.2.08.15.06c2.57,1.08,3.41,1.27,3.69,1.26,0-.08-.09-.28-.54-.7a.36.36,0,0,1-.12-.27.37.37,0,0,1,.1-.26.38.38,0,0,1,.53,0c.29.27,1.17,1.1.57,1.8-.32.38-1,.33-4.24-1l-.28-.11-.14-.06a29.41,29.41,0,0,0-4.1-1.35,9.07,9.07,0,0,0-2.57-.16.37.37,0,0,1-.4-.33.37.37,0,0,1,.33-.42A9.82,9.82,0,0,1,10.3,49.34Zm31.93,2.27-.07.09-.07.12,1.38.87.08-.12c.24-.4.08-.76-.34-1S42.47,51.3,42.23,51.61Zm-18.89-5a.37.37,0,0,1,.33.38v0a5.92,5.92,0,0,1-.5,1.79c-.22.5-.74,1.45-1.14,2.16.35-.13.73-.27,1-.34l.11,0,2-.5a.32.32,0,0,1,.39.28.35.35,0,0,1-.15.43l-.06,0-2,.5c-.49.13-2,.73-2,.74a.36.36,0,0,1-.42-.11.38.38,0,0,1,0-.43l0-.05c.19-.33,1.26-2.23,1.6-3a5.4,5.4,0,0,0,.43-1.54A.37.37,0,0,1,23.34,46.58Zm9.36,1h.09a.37.37,0,0,1,.35.39.38.38,0,0,1-.39.36,1.11,1.11,0,0,0-1.2.81.8.8,0,0,0,.1.68,1.26,1.26,0,0,0,.84.45A1.85,1.85,0,0,0,33.56,50a3.44,3.44,0,0,0,.33-.81.37.37,0,0,1,.47-.25.39.39,0,0,1,.25.47,5.24,5.24,0,0,1-.44,1,2.26,2.26,0,0,1-1.78.6A2,2,0,0,1,31,50.29,1.57,1.57,0,0,1,30.82,49a1.8,1.8,0,0,1,1.79-1.41Zm10.66,1.14,2.36.29-.18.39L45,49.34l-.32.71.43.38-.18.38-1.74-1.65Zm.22.36h0l.83.73.25-.56ZM13.39,31.61a7.17,7.17,0,0,1,3.5,1.16,77.55,77.55,0,0,1,7.55,5.28c2.23,1.84,4.22,3.59,5.2,4.58,1.25,1.27,1.9,2,1.83,2.59s-.48.77-.87.9l-.1,0-.23.08c-.52.18-.63.35-.63.39a2.36,2.36,0,0,0,.07.35,1.7,1.7,0,0,1,0,1.31,1.47,1.47,0,0,1-1.39.5,1.18,1.18,0,0,0-.34,0,1.61,1.61,0,0,0-.28.15c-.38.21-1,.56-1.51.14a1.44,1.44,0,0,1-.48-1.17,3.86,3.86,0,0,1,.08-.69l0-.1.15-.61a4.55,4.55,0,0,0,.12-.51l-.39-.15a2.51,2.51,0,0,1-1.09-.58,1.71,1.71,0,0,1-.29-1,3,3,0,0,1,0-.31,10,10,0,0,1,.2-1.05.37.37,0,0,1,.45-.28.36.36,0,0,1,.28.36s0,.06,0,.09c0,.19-.16.72-.19,1v.23a1,1,0,0,0,.12.58,4,4,0,0,0,.76.34c.53.19.74.28.84.48a.6.6,0,0,1,.06.27,2.68,2.68,0,0,1-.12.64l0,.17-.14.58a2.94,2.94,0,0,0-.09.65.73.73,0,0,0,.2.57c.12.09.46-.1.68-.22a2.11,2.11,0,0,1,.43-.21,1.82,1.82,0,0,1,.58,0c.37,0,.63,0,.76-.16,0,0,0,0,0-.09a3.14,3.14,0,0,0-.12-.61,2.61,2.61,0,0,1-.1-.54c0-.43.33-.78,1-1l.17-.06.26-.09c.44-.14.44-.17.45-.3h0c0-.31-1-1.3-1.62-1.95-.95-1-2.93-2.71-5.14-4.53a74.62,74.62,0,0,0-7.45-5.22,6.41,6.41,0,0,0-3.13-1.06.33.33,0,0,0-.14,0v0a.92.92,0,0,0,.1.36,3.17,3.17,0,0,0,.83.76.4.4,0,0,1,.16.31.37.37,0,0,1-.58.31,3.6,3.6,0,0,1-1.09-1.06A1.23,1.23,0,0,1,12.62,32,.85.85,0,0,1,13.39,31.61Zm6.26,4.66,1,.73,1.9,1.4a.4.4,0,0,1,.15.31.39.39,0,0,1,0,.14c-.11.27-.31.75-.34.87a.48.48,0,0,0,.18.67l.38.25c.22.15.26.41.26.76v.17h0v.67c0,.21.06.52.1.8a5,5,0,0,1,.09.68.31.31,0,0,1,0,.1c0,.15-.11.28-.41.69a10.8,10.8,0,0,0-.78,1.17l-.12.24-.28.64c-.27.62-.44,1-.74,1.22a5.27,5.27,0,0,1-1.25.34l-.22,0-.7.14a7.88,7.88,0,0,0-1.19.43A3.71,3.71,0,0,1,17,49a2.14,2.14,0,0,1-1-.2,8.26,8.26,0,0,0-.83-.24c-.76-.14-.91-.54-.91-1a1,1,0,0,1,0-.17s0-.21-.69-.66A2.64,2.64,0,0,1,12.37,45a.37.37,0,0,1,0-.11,2.36,2.36,0,0,1,.69-1.42l.1-.11.2-.23a.16.16,0,0,0,0-.09.34.34,0,0,0-.12-.22.43.43,0,0,1-.1-.27.4.4,0,0,1,0-.15.38.38,0,0,1,.29-.22h.07l1.32.08a.38.38,0,0,1,.35.4.37.37,0,0,1-.4.35l-.71,0s0,.05,0,.08a.78.78,0,0,1-.12.43l-.07.11-.22.27a2.4,2.4,0,0,0-.59.92V45c0,.41.54.9.84,1.11.69.46,1,.87,1,1.28v.06a.76.76,0,0,0,0,.14c0,.15,0,.16.31.21a6.72,6.72,0,0,1,.92.26,3.85,3.85,0,0,0,.64.18,4.55,4.55,0,0,0,.48-.19c.33-.13.72-.3,1.06-.4l.25-.07.72-.14a8.2,8.2,0,0,0,1.22-.29,2.51,2.51,0,0,0,.4-.75l.05-.12.28-.66a9.7,9.7,0,0,1,1-1.54l.27-.39c0-.1-.05-.33-.08-.51s-.07-.46-.1-.68V41.4c0-.08,0-.22-.11-.26l-.38-.26a1,1,0,0,1-.41-.79,2.5,2.5,0,0,1,.11-.57c0-.14.17-.45.26-.69l-1.33-1c.06.79.13,1.88.13,1.88v0a.39.39,0,0,1-.07.23c-.23.3-.62.84-.71,1a1.76,1.76,0,0,1-1,.86l-.17,0-1.22.22a.41.41,0,0,1-.44-.31.4.4,0,0,1,.26-.41l.06,0,1.19-.22a1,1,0,0,0,.71-.54c.12-.21.51-.75.68-1C19.86,39.39,19.65,36.27,19.65,36.27Zm25,8.52,2.17.64-.11.4-1.81-.53h0l1.64,1.13-.09.32-2,.05h0l1.81.53-.11.4L44,47.11l.19-.66,1.77,0h0l-1.48-1Zm-20.81-29A23.94,23.94,0,0,1,47.61,39.87a24.54,24.54,0,0,1-.27,3.63l-.1.59-.18,0a24.35,24.35,0,0,0,.36-4.19A23.75,23.75,0,0,0,24.27,16h-.39Zm0,.72a23.22,23.22,0,0,1,23,23.37,24.31,24.31,0,0,1-.26,3.52l-.09.58-.87-.16A22.53,22.53,0,0,0,24.25,17.39h-.37Zm0,1.45A22,22,0,0,1,45.24,43.08l-.1.63-.18,0a23,23,0,0,0,.32-3.81,21.61,21.61,0,0,0-21-21.73h-.35Zm-7.76,16a.4.4,0,0,1,.11.26.39.39,0,0,1-.12.28,6.64,6.64,0,0,0-.63.7l.14,0,.08,0h.16c.55,0,1.54.08,1.64.72v.42c0,.1,0,.21,0,.32,0,.43-.07.87-.51.95a1.88,1.88,0,0,1-.83-.15l-.32-.09c0,.11,0,.28-.06.42a8.19,8.19,0,0,1-.2,1.29,2.31,2.31,0,0,0,0,.46,2.63,2.63,0,0,0,.16.9l0,0,0,0a1.23,1.23,0,0,1,.32.68.63.63,0,0,1,0,.19.49.49,0,0,1-.32.29l-.11,0h0c-.24.09-.53.13-2-.12a.37.37,0,0,1-.31-.43.36.36,0,0,1,.43-.31,9,9,0,0,0,1.49.17l-.07-.1a2.67,2.67,0,0,1-.33-1.4,3.22,3.22,0,0,1,.07-.64,9,9,0,0,0,.19-1.19c.05-.55.09-.91.39-1.06a1.34,1.34,0,0,1,.94.09,2.59,2.59,0,0,0,.37.11.81.81,0,0,0,0-.16c0-.11,0-.23,0-.32s0-.19,0-.27A2,2,0,0,0,16,36h-.36c-.46,0-.94-.34-.94-.8,0-.11,0-.38.91-1.27A.37.37,0,0,1,16.12,33.94Zm18.66-9.47c3.58,1.07,5.52,3.81,5.52,8,0,5.39-3.29,9.15-8,9.15-4.28,0-5.8-3.53-6.71-5.76l-.06-.15L25.25,35a1.58,1.58,0,0,0-.87-.92,3,3,0,0,0-2.13.35.38.38,0,0,1-.31-.69,3.67,3.67,0,0,1,2.7-.37,2.25,2.25,0,0,1,1.19,1.13l.09.19.3.71c.88,2.17,2.2,5.45,6.08,5.45,4.28,0,7.26-3.45,7.26-8.4,0-3.45-1.4-5.79-4.07-6.93,0,.89-.05,2.64-.06,2.91a6.84,6.84,0,0,1,1.47,1.46,4.8,4.8,0,0,1,.73,1.9.09.09,0,0,1,0,.05.37.37,0,0,1-.74.05,4.33,4.33,0,0,0-.61-1.57,6.79,6.79,0,0,0-1.44-1.39.37.37,0,0,1-.16-.24v-.08ZM14.09,35.74a.36.36,0,0,1,.19.33.39.39,0,0,1,0,.18s-.64,1.16-.9,1.53a14.71,14.71,0,0,0-.79,1.63,12.19,12.19,0,0,0,1.23.26.37.37,0,0,1,.31.29v.14a.37.37,0,0,1-.42.31c-1.8-.28-1.93-.51-1.93-.82a10.13,10.13,0,0,1,1-2.24c.23-.34.85-1.46.86-1.47A.36.36,0,0,1,14.09,35.74ZM5.65,31.46,5.2,33.11l-1.3.08-.58,2.12,1.06.78L4,37.61-1,33.9l.51-1.84Zm-2.9,1.79L.4,33.31h0l2,1.34Zm25.94-7.73H29a6.5,6.5,0,0,1,2.45.5,15,15,0,0,1,1.41.76.38.38,0,0,1,.12.52.36.36,0,0,1-.51.12,13.51,13.51,0,0,0-1.31-.7A5.64,5.64,0,0,0,29,26.28a7.74,7.74,0,0,0-3.22.61,22.44,22.44,0,0,0-3.33,1.68c-1.21.72-2.64,1.48-3.48,1.86a13.08,13.08,0,0,1-2.92.93.38.38,0,0,1-.37-.38.39.39,0,0,1,.38-.38,12.34,12.34,0,0,0,2.61-.87c.81-.36,2.22-1.11,3.4-1.81a23.31,23.31,0,0,1,3.46-1.74,9.12,9.12,0,0,1,2.84-.65ZM3.32,24.59l4.5,3.12a1.89,1.89,0,0,1,.65,2.85l-.37.55-1.29.18a3.78,3.78,0,0,0,.4-1.09,1.29,1.29,0,0,0-.65-1.48L2.44,25.87ZM9.6,18.46l5.18,3.42-1.37,1-1.07-.76-1.75,1.29.35,1.28-1.26.93-1.61-6ZM9.53,20h0l.72,2.29,1.17-.86Zm10.78-5.79-1,3.1,2.52,2.54-1.78.44-1.59-1.82-.57,2.36-1.69.42,1.09-3.44L15,15.52l1.74-.43,1.39,1.64.51-2.12ZM3.42,5.27,5.66,7.5,8.5,6.14,7.1,9l2.16,2.32-3.11-.47-1.51,2.8L4.12,10.5,1,9.91,3.81,8.43ZM44,5l-.4,3.16L46.4,9.67l-3.08.58-.53,3.14L41.28,10.6l-3.1.46,2.15-2.32L38.94,5.89l2.84,1.36ZM23.66.2l1,3,3.13.07L25.32,5.2l.91,3.05L23.66,6.43,21.08,8.25l.91-3-2.5-1.92,3.14-.07Z" transform="translate(1 -0.2)"/></g><path id="Combined-Shape" class="cls-1" d="M199.39,30.22v4.56H203v2.46h-3.58v9.59c0,2,.48,2.36,1.64,2.36a11.37,11.37,0,0,0,1.79-.15l.24,0v2.68l-.16,0a15.12,15.12,0,0,1-2.5.28c-3.08,0-4.33-1.4-4.33-4.82V37.24h-2.71V34.78h2.71V30.22ZM95.75,28V43.71C95.75,49.5,93.1,52,87,52s-8.68-2.53-8.68-8.46v-.77h6.25v.77c0,2.29.68,3.22,2.32,3.22s2.28-1,2.28-3.29V28Zm230.81,6.4c5.3,0,8.62,4,8.43,10H322.31a4.31,4.31,0,0,0,4.35,4.27,4,4,0,0,0,3.61-1.93h4.53A8.22,8.22,0,0,1,326.69,52c-5.53,0-8.75-4-8.75-8.87A8.37,8.37,0,0,1,326.56,34.4Zm-160.7.1c4.12,0,7.79,2.62,7.79,8.74S170,52,165.86,52s-7.76-2.63-7.76-8.75S161.74,34.5,165.86,34.5Zm98.47.28v9.68c0,2.25.32,4.06,2.81,4.06,2.91,0,3.58-2.34,3.58-5V34.78h4.41v16.8h-4.41V49.36a5.68,5.68,0,0,1-5,2.63c-4.12,0-5.79-2.47-5.79-6.59V34.78Zm30.53,0v9.68c0,2.25.32,4.06,2.81,4.06,2.91,0,3.58-2.34,3.58-5V34.78h4.4v16.8h-4.4V49.36a5.68,5.68,0,0,1-5,2.63c-4.12,0-5.78-2.47-5.78-6.59V34.78Zm-65.12-.31c5.3,0,8.39,4.24,8,9.71H224.69c.32,3.09,2.33,5,5,5,2.4,0,3.8-1,4.51-2.56h3.35c-.8,2.78-3.35,5.34-7.73,5.34-5.55,0-8.56-4-8.56-8.84C221.27,37.93,224.85,34.47,229.74,34.47Zm54.68-4.25v4.56h3.89v3h-3.89V46.4c0,1.71.41,2.19,1.85,2.18a11.63,11.63,0,0,0,2-.18l.28,0v3.26l-.2,0a16,16,0,0,1-2.84.34c-4,0-5.47-1.78-5.47-5.38V37.74h-2.75v-3H280V30.22ZM110.42,28l7.64,23.58h-6.89L110,47.39h-6.5l-1.17,4.19H95.75L103.39,28Zm16.38,0,3.25,6,3.36-6h6.86l-6.75,11.58,7,12H133l-3.46-6.31-3.58,6.31h-6.86l7-12L119.27,28ZM70.68,28l7.64,23.58H71.43l-1.18-4.19h-6.5l-1.18,4.19H56L63.64,28Zm137.74.94v8.27a5.84,5.84,0,0,1,5.4-2.74c4.15,0,5.75,2.62,5.75,6.52V51.58h-3.32V41.87c0-2.44-.42-4.69-3.55-4.69-2.87,0-4.28,2-4.28,5.37v9H205.1V28.94Zm-25.33,5.54a4,4,0,0,1,.58,0v2.06c-.32,0-.61,0-.9,0-3.54,0-4.69,2.5-4.69,6.06v9h-2V34.78H178v2.89A5.53,5.53,0,0,1,183.09,34.48Zm129,.3v2.93a4.68,4.68,0,0,1,4.54-2.9c.28,0,.67,0,.95.06v4.06c-.64-.06-1.18-.09-1.82-.09-2.17,0-3.6.78-3.6,3.93v8.81h-4.41V34.78ZM255.58,28a23.43,23.43,0,0,1,2.56.16v3.46a17.19,17.19,0,0,0-2-.12c-1.08,0-1.81.34-1.81,2.09v1.19h3.44v3h-3.44V51.58h-4.41V37.75H247.5v-3h2.43V33.37C249.93,29.72,251.81,28,255.58,28Zm-99.35,1a8,8,0,0,1,1.78.2l.28.06v1.9l-.47-.13a7.05,7.05,0,0,0-1.53-.21c-1.22,0-1.8.29-1.8,1.95v2H158v1.69h-3.55V51.58h-2V36.47H150V34.78h2.52V32.87C152.5,30.29,153.75,29,156.23,29Zm9.63,7.3c-3.29,0-5.65,2.15-5.65,7s2.36,7,5.65,7,5.69-2.16,5.69-7S169.15,36.28,165.86,36.28ZM106.74,34.8l-2,7.66h3.93ZM67,34.8l-2,7.66H69Zm162.7,2.32c-2.58,0-4.5,1.31-4.95,4.5h9.58A4.49,4.49,0,0,0,229.7,37.12Zm96.83.44a4.12,4.12,0,0,0-4.15,3.84h8.14A3.72,3.72,0,0,0,326.53,37.56Z" transform="translate(1 -0.2)"/></g></g></svg>